<svg xmlns="http://www.w3.org/2000/svg" viewBox="0 0 750 500">
  <rect width="750" height="500" fill="#c60b1e"/>
  <rect width="750" height="250" y="125" fill="#ffc400"/>
  <path d="M298.77 249.67h40.43v79.8h-40.43z"/>
  <path d="M298.77 249.67h40.43v79.8h-40.43z" fill="#c60b1e"/>
  <g stroke="#000" fill="#c60b1e">
    <path d="M340.5 243.22c.28 9.14-4.92 17.66-13.97 22.85-9.05 5.18-20.18 5.18-29.23 0-9.05-5.18-14.25-13.7-13.97-22.85.76-11.58 11.15-20.7 23.46-21.6h10.25c12.31.9 22.7 10.02 23.46 21.6z" stroke-width="1.04"/>
    <path d="M301.65 224.97h34.47v18.84h-34.47z"/>
  </g>
  <path d="M320.89 236.75a12 12 0 01-12 12 12 12 0 01-12-12 12 12 0 0112-12 12 12 0 0112 12z" fill="#ffc400"/>
  <path d="M337.37 255.96h-37.01v5.93s-2.96 1.19-2.96 4.15c0 4.45 5.93 4.45 5.93 4.45h31.08s5.93 0 5.93-4.45c0-4.45-2.97-10.08-2.97-10.08z" stroke="#000" stroke-width=".96" fill="#005bbf"/>
  <path d="M316.74 270.5h-16.38v67.82h16.38z" stroke="#000" stroke-width="1.07" fill="#f1eeee"/>
  <path d="M333.12 270.5h-16.38v67.82h16.38z" stroke="#000" stroke-width="1.07" fill="#f1eeee"/>
  <path d="M316.74 270.5h-8.2v67.82h8.2z" stroke="#000" stroke-width=".76"/>
  <path d="M333.12 270.5h-8.19v67.82h8.19z" stroke="#000" stroke-width=".76"/>
</svg>