<svg xmlns="http://www.w3.org/2000/svg" viewBox="0 0 640 480">
  <defs>
    <clipPath id="a">
      <path fill-opacity=".7" d="M-88 0h682.7v512H-88z"/>
    </clipPath>
  </defs>
  <g fill-rule="evenodd" clip-path="url(#a)" transform="translate(82.5) scale(.94)">
    <path fill="#fff" d="M-88 0h768v512H-88z"/>
    <path fill="#0038b8" d="M-88 80h768v352H-88z"/>
    <path fill="#fff" d="M-88 160h768v192H-88z"/>
    <path fill="#0038b8" d="M335.3 307l-.8 62L295 307l40.3-62zm-128 0l-.8 62-39.5-62 40.3-62zm128-192l-.8 62-39.5-62 40.3-62zm-128 0l-.8 62-39.5-62 40.3-62z"/>
    <path fill="#0038b8" d="M303 307l-47.2-36.6 63-.4-15.7-59 64.2 41.3-29.3-70.8 47.3 36.6-63 .4 15.7 59-64.2-41.3zm-128 0l-47.2-36.6 63-.4-15.7-59 64.2 41.3-29.3-70.8 47.3 36.6-63 .4 15.7 59-64.2-41.3zm128-192l-47.2-36.6 63-.4-15.7-59 64.2 41.3-29.3-70.8 47.3 36.6-63 .4 15.7 59-64.2-41.3zm-128 0l-47.2-36.6 63-.4-15.7-59 64.2 41.3-29.3-70.8 47.3 36.6-63 .4 15.7 59-64.2-41.3z"/>
  </g>
</svg>